<?xml version="1.0" encoding="UTF-8"?>
<svg version="1.1" xmlns="http://www.w3.org/2000/svg" width="307" height="67">
<path d="M0 0 C101.31 0 202.62 0 307 0 C307 22.11 307 44.22 307 67 C205.69 67 104.38 67 0 67 C0 44.89 0 22.78 0 0 Z " fill="#FDFDFD" transform="translate(0,0)"/>
<path d="M0 0 C1.26972656 -0.00257812 2.53945312 -0.00515625 3.84765625 -0.0078125 C6.9375 0.125 6.9375 0.125 7.9375 1.125 C8.02419432 2.6137186 8.04453494 4.106445 8.03515625 5.59765625 C8.03193359 6.49677734 8.02871094 7.39589844 8.02539062 8.32226562 C8.01701172 9.26779297 8.00863281 10.21332031 8 11.1875 C7.99548828 12.13689453 7.99097656 13.08628906 7.98632812 14.06445312 C7.9745011 16.41803065 7.95802025 18.77148477 7.9375 21.125 C2.29481887 22.61144471 -3.54378953 23.19679169 -9 20.875 C-12.73425165 17.70654406 -13.91458838 16.27131509 -14.5625 11.25 C-14.40210164 6.48260416 -12.40529539 4.38820502 -9.0625 1.125 C-6.07566593 -0.36841703 -3.31850226 -0.00675178 0 0 Z " fill="#595959" transform="translate(246.0625,21.875)"/>
<path d="M0 0 C1.32 0 2.64 0 4 0 C4 0.66 4 1.32 4 2 C4.66 2 5.32 2 6 2 C6 1.34 6 0.68 6 0 C7.43655854 -0.08131463 8.8744483 -0.13933559 10.3125 -0.1875 C11.51326172 -0.23970703 11.51326172 -0.23970703 12.73828125 -0.29296875 C15.52745402 0.06832306 16.16223924 0.95632767 18 3 C18.99 3.33 19.98 3.66 21 4 C21.33 3.01 21.66 2.02 22 1 C25.15982889 -0.57991444 27.50055861 -0.34420735 31 0 C34.28933329 1.73874028 37.31178909 3.62357818 39 7 C39.07116382 9.37402501 39.08409085 11.75000677 39.0625 14.125 C39.05347656 15.40632813 39.04445312 16.68765625 39.03515625 18.0078125 C39.02355469 18.99523437 39.01195312 19.98265625 39 21 C37.0625 21.5625 37.0625 21.5625 35 22 C32.7977242 19.7977242 33.54767765 14.86324363 33.37890625 11.8828125 C33.19049848 8.80741166 33.19049848 8.80741166 31 6 C27.41642759 5.74984127 27.41642759 5.74984127 24 6 C22.9458482 9.16245541 22.68724328 11.86948218 22.4375 15.1875 C22.31181641 16.81751953 22.31181641 16.81751953 22.18359375 18.48046875 C22.09271484 19.72763672 22.09271484 19.72763672 22 21 C20.0625 21.5625 20.0625 21.5625 18 22 C15.69208781 19.69208781 16.54006023 14.1275504 16.37890625 11.00390625 C16.29782447 7.88912046 16.29782447 7.88912046 14 6 C10.5 5.66666667 10.5 5.66666667 7 6 C4.14206684 8.85793316 4.59200059 11.14665584 4.375 15.125 C4.26285156 17.04699219 4.26285156 17.04699219 4.1484375 19.0078125 C4.09945312 19.99523437 4.05046875 20.98265625 4 22 C2.68 22 1.36 22 0 22 C0 14.74 0 7.48 0 0 Z " fill="#595959" transform="translate(119,22)"/>
<path d="M0 0 C2.8312175 0.03618169 4.3689438 0.20549305 6.7421875 1.78125 C9.60680476 4.79663659 11.19019659 7.42881958 11.4375 11.625 C10.74538998 15.91608215 9.98803366 17.58194205 6.8125 20.5 C3.44392341 22.71363604 1.02246562 22.56492088 -2.8125 21.875 C-5.63420996 21.28754503 -6.89638861 20.79698584 -8.9296875 18.72265625 C-11.13735467 14.8215301 -10.96696869 10.83974459 -10.1875 6.5 C-7.75 3.4375 -7.75 3.4375 -5.1875 1.5 C-3.63817598 -0.04932402 -2.15061911 0.14409508 0 0 Z " fill="#515151" transform="translate(72.1875,21.5)"/>
<path d="M0 0 C3.03584405 1.67200914 5.37779614 3.66670602 6.875 6.875 C6.91625 7.57625 6.9575 8.2775 7 9 C7.12375 10.134375 7.2475 11.26875 7.375 12.4375 C7 16 7 16 5.1875 18.9375 C0.50907039 21.96471916 -3.58138747 21.8286334 -9 21 C-12.1875 19.6875 -12.1875 19.6875 -14 17 C-14.90667643 12.45953443 -15.11790818 8.13418834 -12.92578125 3.94921875 C-9.32002891 -0.18998736 -5.31456782 -1.42637506 0 0 Z " fill="#565656" transform="translate(179,22)"/>
<path d="M0 0 C0.75732422 0.00966797 1.51464844 0.01933594 2.29492188 0.02929688 C3.08060547 0.05443359 3.86628906 0.07957031 4.67578125 0.10546875 C5.87170898 0.12577148 5.87170898 0.12577148 7.09179688 0.14648438 C9.05758092 0.18179786 11.02301707 0.23560428 12.98828125 0.29296875 C13.31828125 1.61296875 13.64828125 2.93296875 13.98828125 4.29296875 C6.06828125 4.78796875 6.06828125 4.78796875 -2.01171875 5.29296875 C-2.01171875 6.28296875 -2.01171875 7.27296875 -2.01171875 8.29296875 C-0.78195313 8.34904297 -0.78195313 8.34904297 0.47265625 8.40625 C1.5503125 8.47199219 2.62796875 8.53773437 3.73828125 8.60546875 C4.805625 8.66347656 5.87296875 8.72148437 6.97265625 8.78125 C10.20898896 9.33042045 11.68515133 9.9843421 13.98828125 12.29296875 C14.46449354 15.4903941 14.33335179 17.50524625 13.03515625 20.46875 C9.712884 23.42963004 6.07934253 22.71503773 1.80078125 22.54296875 C0.95580078 22.52492188 0.11082031 22.506875 -0.75976562 22.48828125 C-2.84423448 22.44117461 -4.92812019 22.36943108 -7.01171875 22.29296875 C-7.01171875 20.64296875 -7.01171875 18.99296875 -7.01171875 17.29296875 C-1.73171875 17.29296875 3.54828125 17.29296875 8.98828125 17.29296875 C8.98828125 15.97296875 8.98828125 14.65296875 8.98828125 13.29296875 C8.00085938 13.31617188 7.0134375 13.339375 5.99609375 13.36328125 C4.71476563 13.38132812 3.4334375 13.399375 2.11328125 13.41796875 C0.19902344 13.45277344 0.19902344 13.45277344 -1.75390625 13.48828125 C-5.01171875 13.29296875 -5.01171875 13.29296875 -7.01171875 11.29296875 C-7.5888442 4.02118808 -7.5888442 4.02118808 -5.73974609 1.68798828 C-3.63429108 -0.01172491 -2.67119066 -0.06025242 0 0 Z " fill="#525252" transform="translate(201.01171875,21.70703125)"/>
<path d="M0 0 C0.84498047 0.01804687 1.68996094 0.03609375 2.56054688 0.0546875 C4.64501573 0.10179414 6.72890144 0.17353767 8.8125 0.25 C9.1425 1.57 9.4725 2.89 9.8125 4.25 C1.8925 4.745 1.8925 4.745 -6.1875 5.25 C-6.5175 6.57 -6.8475 7.89 -7.1875 9.25 C-5.84945312 9.18039063 -5.84945312 9.18039063 -4.484375 9.109375 C-3.31390625 9.07328125 -2.1434375 9.0371875 -0.9375 9 C0.80273438 8.93039063 0.80273438 8.93039063 2.578125 8.859375 C5.8125 9.25 5.8125 9.25 8.203125 11.109375 C9.8125 13.25 9.8125 13.25 10.3125 15.75 C9.6252489 19.18625549 8.63505982 20.16376014 5.8125 22.25 C2.87997629 22.73875395 0.02496168 22.62773467 -2.9375 22.5 C-4.12666016 22.47292969 -4.12666016 22.47292969 -5.33984375 22.4453125 C-7.28958348 22.39833082 -9.23869878 22.32659044 -11.1875 22.25 C-11.5175 20.93 -11.8475 19.61 -12.1875 18.25 C-6.9075 17.92 -1.6275 17.59 3.8125 17.25 C4.1425 15.93 4.4725 14.61 4.8125 13.25 C3.34876953 13.31960937 3.34876953 13.31960937 1.85546875 13.390625 C0.58316406 13.42671875 -0.68914062 13.4628125 -2 13.5 C-3.26457031 13.54640625 -4.52914062 13.5928125 -5.83203125 13.640625 C-9.1875 13.25 -9.1875 13.25 -11.11328125 11.390625 C-12.44940202 8.72810071 -12.62930677 7.19537846 -12.1875 4.25 C-9.75423516 -1.23736269 -5.21127557 -0.20957953 0 0 Z " fill="#535353" transform="translate(102.1875,21.75)"/>
<path d="M0 0 C2.39446415 1.43869064 4.00202012 3.00202012 6 5 C5.67 6.32 5.34 7.64 5 9 C4.01 9 3.02 9 2 9 C1.34 8.01 0.68 7.02 0 6 C-1.96361864 5.42251197 -1.96361864 5.42251197 -4.125 5.3125 C-6.043125 5.1578125 -6.043125 5.1578125 -8 5 C-8.22174933 6.45635371 -8.42698698 7.91522956 -8.625 9.375 C-8.74101563 10.18710937 -8.85703125 10.99921875 -8.9765625 11.8359375 C-8.98429687 12.55007812 -8.99203125 13.26421875 -9 14 C-7.12061828 16.29827312 -7.12061828 16.29827312 -4.0625 16.3125 C-0.58358673 15.95750885 -0.28033913 15.38399091 2 13 C4.1875 13.3125 4.1875 13.3125 6 14 C5.43170883 17.29608879 4.5894111 18.87820264 2 21 C-2.14589985 22.22668947 -5.84081142 22.45359553 -9.875 20.875 C-13.45111563 17.71960386 -14.80985804 15.30722599 -15.5 10.5625 C-14.83624442 5.83324149 -13.34318209 4.34318209 -10 1 C-6.77518921 -0.6124054 -3.48584376 -0.60679502 0 0 Z " fill="#5E5E5E" transform="translate(49,22)"/>
<path d="M0 0 C1.9375 1.125 1.9375 1.125 3 3 C3.38976435 6.11811483 3.50422245 8.11019567 1.9375 10.875 C-1.14071911 12.66235303 -3.52906068 12.43386742 -7 12 C-9.42061048 9.89172636 -9.9127007 8.59654522 -10.375 5.4375 C-10 3 -10 3 -8.9375 1.1875 C-5.90624457 -0.67036623 -3.46577141 -0.37133265 0 0 Z " fill="#F0F0F0" transform="translate(179,27)"/>
<path d="M0 0 C3.5625 0.25 3.5625 0.25 6.5625 2.25 C6.93581109 5.67201828 7.20013183 8.15185629 5.4375 11.1875 C2.70265561 12.73724515 0.6500593 12.57162076 -2.4375 12.25 C-3.4275 11.59 -4.4175 10.93 -5.4375 10.25 C-5.80078125 8.375 -5.80078125 8.375 -5.75 6.25 C-5.74419922 5.198125 -5.74419922 5.198125 -5.73828125 4.125 C-5.14266125 0.41204414 -3.51939182 0.25595577 0 0 Z " fill="#F5F5F5" transform="translate(242.4375,26.75)"/>
<path d="M0 0 C2.32528287 2.32528287 2.29511025 2.84665898 2.3125 6 C2.32925781 6.70125 2.34601563 7.4025 2.36328125 8.125 C2.18345703 9.053125 2.18345703 9.053125 2 10 C-1.46923881 12.31282587 -2.92205575 12.42478586 -7 12 C-8.875 10.875 -8.875 10.875 -10 9 C-10.38976435 5.88188517 -10.50422245 3.88980433 -8.9375 1.125 C-5.93267901 -0.61973477 -3.39189869 -0.30835443 0 0 Z " fill="#F7F7F7" transform="translate(76,27)"/>
<path d="M0 0 C3.0625 2.375 3.0625 2.375 5 5 C5 5.66 5 6.32 5 7 C4.01 7.495 4.01 7.495 3 8 C2.34444881 10.52733235 2.34444881 10.52733235 2 13 C1.67 13 1.34 13 1 13 C0.34 10.69 -0.32 8.38 -1 6 C-4.41656024 5.83322718 -4.41656024 5.83322718 -8 6 C-10.35953094 8.35953094 -10.49141413 9.77895617 -11 13 C-11.33 11.68 -11.66 10.36 -12 9 C-12.99 9 -13.98 9 -15 9 C-14.72608098 5.7129718 -14.18168017 4.21006769 -12 1.6875 C-7.94175918 -0.59526046 -4.55761793 -0.98075323 0 0 Z " fill="#626262" transform="translate(77,22)"/>
<path d="M0 0 C0.33 0 0.66 0 1 0 C1.20768405 3.04603275 1.2757829 5.35650657 0.0625 8.1875 C-3.27979904 11.12467189 -6.90627866 10.42217595 -11.1875 10.25 C-12.03248047 10.23195313 -12.87746094 10.21390625 -13.74804688 10.1953125 C-15.83251573 10.14820586 -17.91640144 10.07646233 -20 10 C-20 8.35 -20 6.7 -20 5 C-14.72 5 -9.44 5 -4 5 C-3.67 4.01 -3.34 3.02 -3 2 C-2.01 2.66 -1.02 3.32 0 4 C0 2.68 0 1.36 0 0 Z " fill="#757575" transform="translate(214,34)"/>
<path d="M0 0 C2.475 0.495 2.475 0.495 5 1 C5 7.27 5 13.54 5 20 C3.68 20.33 2.36 20.66 1 21 C0 20 0 20 -0.11352539 18.05053711 C-0.10567017 16.8015564 -0.10567017 16.8015564 -0.09765625 15.52734375 C-0.09443359 14.62822266 -0.09121094 13.72910156 -0.08789062 12.80273438 C-0.07951172 11.85720703 -0.07113281 10.91167969 -0.0625 9.9375 C-0.05798828 8.98810547 -0.05347656 8.03871094 -0.04882812 7.06054688 C-0.0370011 4.70696935 -0.02052025 2.35351523 0 0 Z " fill="#686868" transform="translate(261,23)"/>
<path d="M0 0 C0.33 0 0.66 0 1 0 C1.309375 0.969375 1.61875 1.93875 1.9375 2.9375 C2.69523342 5.84065792 2.69523342 5.84065792 4 7 C6.91608998 7.33361919 6.91608998 7.33361919 10 7 C11.0194119 6.01979625 12.02246356 5.02196992 13 4 C15.1875 4.3125 15.1875 4.3125 17 5 C16.43170883 8.29608879 15.5894111 9.87820264 13 12 C8.72421092 13.26512111 5.09672351 13.47981654 1 11.6875 C-1 10 -1 10 -2 8 C-1.34 8 -0.68 8 0 8 C0 5.36 0 2.72 0 0 Z " fill="#717171" transform="translate(38,31)"/>
<path d="M0 0 C0.598125 0.226875 1.19625 0.45375 1.8125 0.6875 C1.42106977 2.95779534 0.92508722 4.52158198 -0.375 6.4375 C-2.97437216 8.23017046 -5.11089216 7.89260719 -8.1875 7.6875 C-3.5375 -0.50535714 -3.5375 -0.50535714 0 0 Z " fill="#646464" transform="translate(53.1875,35.3125)"/>
<path d="M0 0 C6.47556391 0.61090226 6.47556391 0.61090226 8.9375 2.4375 C10 4 10 4 10 6 C9.01 6.495 9.01 6.495 8 7 C7.34444881 9.52733235 7.34444881 9.52733235 7 12 C6.67 12 6.34 12 6 12 C5.62875 10.3603125 5.62875 10.3603125 5.25 8.6875 C3.94819966 4.84718899 3.27652107 4.07513001 0 2 C0 1.34 0 0.68 0 0 Z " fill="#616161" transform="translate(72,23)"/>
<path d="M0 0 C4.29 0 8.58 0 13 0 C13 0.66 13 1.32 13 2 C10.35541621 3.32229189 8.32238699 3.09677194 5.375 3.0625 C4.37210938 3.05347656 3.36921875 3.04445312 2.3359375 3.03515625 C1.56507813 3.02355469 0.79421875 3.01195312 0 3 C0 2.01 0 1.02 0 0 Z " fill="#4C4C4C" transform="translate(194,40)"/>
<path d="M0 0 C0.33 0 0.66 0 1 0 C2.19287411 3.87684087 3 6.91621923 3 11 C1.5 10 1.5 10 0 8 C-0.27345479 5.28153765 -0.13491285 2.74322801 0 0 Z M4 1 C4.33 1 4.66 1 5 1 C5 3.31 5 5.62 5 8 C4.67 8 4.34 8 4 8 C4 5.69 4 3.38 4 1 Z " fill="#777777" transform="translate(232,29)"/>
<path d="M0 0 C1.23556641 0.01740234 1.23556641 0.01740234 2.49609375 0.03515625 C3.32238281 0.04417969 4.14867188 0.05320312 5 0.0625 C5.63808594 0.07410156 6.27617188 0.08570312 6.93359375 0.09765625 C7.26359375 0.75765625 7.59359375 1.41765625 7.93359375 2.09765625 C4.96359375 1.60265625 4.96359375 1.60265625 1.93359375 1.09765625 C2.59359375 2.41765625 3.25359375 3.73765625 3.93359375 5.09765625 C2.61359375 5.09765625 1.29359375 5.09765625 -0.06640625 5.09765625 C-0.06640625 4.10765625 -0.06640625 3.11765625 -0.06640625 2.09765625 C-1.05640625 1.76765625 -2.04640625 1.43765625 -3.06640625 1.09765625 C-2.06640625 0.09765625 -2.06640625 0.09765625 0 0 Z " fill="#858585" transform="translate(70.06640625,21.90234375)"/>
<path d="M0 0 C0.99 0 1.98 0 3 0 C3 2.31 3 4.62 3 7 C2.01 7.33 1.02 7.66 0 8 C0 5.36 0 2.72 0 0 Z " fill="#444444" transform="translate(262,23)"/>
<path d="M0 0 C2.475 0.495 2.475 0.495 5 1 C4.67 1.99 4.34 2.98 4 4 C2.68 4 1.36 4 0 4 C0 2.68 0 1.36 0 0 Z " fill="#717171" transform="translate(261,16)"/>
<path d="M0 0 C0.99 0 1.98 0 3 0 C3.33 1.32 3.66 2.64 4 4 C2.02 4 0.04 4 -2 4 C-1.34 2.68 -0.68 1.36 0 0 Z " fill="#505050" transform="translate(47,39)"/>
</svg>
